<svg xmlns="http://www.w3.org/2000/svg" version="1.1" xmlns:xlink="http://www.w3.org/1999/xlink" xmlns:svgjs="http://svgjs.dev/svgjs" width="1500" height="935" viewBox="0 0 1500 935"><g transform="matrix(1,0,0,1,-0.9090909090909918,0.3785425101214628)"><svg viewBox="0 0 396 247" data-background-color="#e7d1c2" preserveAspectRatio="xMidYMid meet" height="935" width="1500" xmlns="http://www.w3.org/2000/svg" xmlns:xlink="http://www.w3.org/1999/xlink"><g id="tight-bounds" transform="matrix(1,0,0,1,0.2400000000000091,-0.09999999999999432)"><svg viewBox="0 0 395.52 247.2" height="247.2" width="395.52"><g><svg></svg></g><g><svg viewBox="0 0 395.52 247.2" height="247.2" width="395.52"><g transform="matrix(1,0,0,1,75.54432,81.10253281337047)"><svg viewBox="0 0 244.43135999999998 84.99493437325904" height="84.99493437325904" width="244.43135999999998"><g><svg viewBox="0 0 244.43135999999998 84.99493437325904" height="84.99493437325904" width="244.43135999999998"><g><svg viewBox="0 0 244.43135999999998 84.99493437325904" height="84.99493437325904" width="244.43135999999998"><g><svg viewBox="0 0 244.43135999999998 84.99493437325904" height="84.99493437325904" width="244.43135999999998"><g id="textblocktransform"><svg viewBox="0 0 244.43135999999998 84.99493437325904" height="84.99493437325904" width="244.43135999999998" id="textblock"><g><svg viewBox="0 0 244.43135999999998 84.99493437325904" height="84.99493437325904" width="244.43135999999998"><g transform="matrix(1,0,0,1,0,0)"><svg width="244.43135999999998" viewBox="1.95 -36.06 105.17 36.57" height="84.99493437325904" data-palette-color="#ee7d23"><path d="M18.04 0.51L18.04 0.51Q12.7 0.51 9.13-1.83L9.13-1.83Q5.54-4.17 3.75-8.25 1.95-12.33 1.95-17.5L1.95-17.5 1.95-18.02Q1.95-23.22 3.83-27.32L3.83-27.32Q5.71-31.4 9.23-33.73 12.74-36.06 17.63-36.06L17.63-36.06Q21.07-36.06 23.93-34.99 26.78-33.91 28.66-32.25L28.66-32.25 28.66-24.58 24.83-24.58 24.32-30.2Q23.58-30.81 22.53-31.23L22.53-31.23Q20.46-32.08 17.6-32.08L17.6-32.08Q14.09-32.08 11.69-30.3L11.69-30.3Q9.28-28.52 8.03-25.35 6.79-22.19 6.79-18.07L6.79-18.07 6.79-17.5Q6.79-13.01 8.13-9.89L8.13-9.89Q10.84-3.39 18.21-3.39L18.21-3.39Q19.92-3.39 21.56-3.81 23.19-4.22 24.27-4.88L24.27-4.88 24.8-9.84 28.56-9.84 28.56-2.12Q26.56-0.88 23.78-0.18 21 0.51 18.04 0.51ZM68.89-29L57.35-1.27 54.15-1.27 42.21-28.96 42.09-28.93 42.26-14.06 42.26-3.76 46.56-3.08 46.56 0 33.79 0 33.79-3.08 37.77-3.76 37.77-31.76 33.79-32.45 33.79-35.55 44.19-35.55 55.64-8.57 55.78-8.57 66.87-35.55 77.59-35.55 77.59-32.45 73.61-31.76 73.61-3.76 77.59-3.08 77.59 0 64.82 0 64.82-3.08 69.02-3.76 69.02-28.98 68.89-29ZM94.67 0.51L94.67 0.51Q91.43 0.51 88.42-0.44 85.42-1.39 82.69-3.37L82.69-3.37 82.69-10.96 86.42-10.96 87.23-5.37Q88.81-4.39 90.67-3.86 92.52-3.32 94.67-3.32L94.67-3.32Q97.14-3.32 98.82-4.08L98.82-4.08Q102.31-5.59 102.31-9.2L102.31-9.2Q102.31-10.82 101.53-12.08L101.53-12.08Q100.75-13.33 98.96-14.27 97.16-15.21 94.06-15.92L94.06-15.92Q90.5-16.75 87.89-18.21L87.89-18.21Q82.73-21.12 82.73-26.34L82.73-26.34Q82.73-29.15 84.22-31.32L84.22-31.32Q85.69-33.52 88.33-34.79 90.96-36.06 94.48-36.06L94.48-36.06Q98.21-36.06 101.08-34.92 103.95-33.79 105.81-32.18L105.81-32.18 105.81-25.07 102.07-25.07 101.26-30.15Q100.17-31.03 98.53-31.62 96.89-32.2 94.48-32.2L94.48-32.2Q92.48-32.2 90.86-31.49L90.86-31.49Q89.3-30.76 88.42-29.47 87.54-28.17 87.54-26.42L87.54-26.42Q87.54-24.88 88.35-23.73L88.35-23.73Q89.81-21.56 95.72-20.09L95.72-20.09Q107.12-17.26 107.12-9.25L107.12-9.25Q107.12-6.4 105.59-4.2L105.59-4.2Q104.05-1.98 101.25-0.73 98.46 0.51 94.67 0.51Z" opacity="1" transform="matrix(1,0,0,1,0,0)" fill="#ee7d23" class="wordmark-text-0" data-fill-palette-color="primary" id="text-0"></path></svg></g></svg></g></svg></g></svg></g></svg></g></svg></g></svg></g><g><path d="M245.816 0c68.262 0 123.6 55.338 123.6 123.6 0 68.262-55.338 123.6-123.6 123.6-49.479 0-92.168-29.074-111.915-71.07h4.252c19.463 39.815 60.36 67.237 107.663 67.238 66.146 0 119.768-53.622 119.767-119.768 0-66.146-53.622-119.768-119.767-119.768-47.303 0-88.201 27.423-107.663 67.238l-4.252 0c19.746-41.996 62.435-71.07 111.915-71.07z" fill="#ee7d23" stroke="transparent" data-fill-palette-color="tertiary"></path></g></svg></g><defs></defs></svg><rect width="395.52" height="247.2" fill="none" stroke="none" visibility="hidden"></rect></g></svg></g></svg>